PathFileType	4	(X/Y/Z)	C:/Users/beibeiliu/ov580/test_trc/User2\sequence.20_training_dense_right.trc
DataRate	CameraRate	NumFrames	NumMarkers	Units	OrigDataRate	OrigDataStartFrame	OrigNumFrames
120	120	18	19	mm	120	1	318
Frame#	Time	ThumbCMC			ThumbMCP			ThumbIP			ThumbTip			IndexMCP			IndexPIP			IndexTip			MiddleMCP			MiddlePIP			MiddleTip			RingMCP			RingPIP			RingTip			PinkyMCP			PinkyPIP			PinkyTip			BackHand1			BackHand2			BackHand3	
		X0	Y0	Z0	X1	Y1	Z1	X2	Y2	Z2	X3	Y3	Z3	X4	Y4	Z4	X5	Y5	Z5	X6	Y6	Z6	X7	Y7	Z7	X8	Y8	Z8	X9	Y9	Z9	X10	Y10	Z10	X11	Y11	Z11	X12	Y12	Z12	X13	Y13	Z13	X14	Y14	Z14	X15	Y15	Z15	X16	Y16	Z16	X17	Y17	Z17	X18	Y18	Z18	
0	0	65.4426	-30.4804	66.5229	33.8288	-33.7442	51.951	10.7462	-40.9443	26.3888	-3.99114	-48.8357	8.89528	63.3016	-22.352	-18.6784	53.4448	-25.3089	-47.563	44.047	-25.1218	-69.3621	91.318	-21.6952	-30.9677	82.9357	-24.3308	-59.7519	82.1776	-24.2918	-91.3246	114.84	-29.1046	-28.5016	114.578	-30.4858	-55.2273	115.639	-29.309	-84.1432	135.857	-39.4864	-13.9562	141.491	-40.5217	-39.1737	147.101	-37.5378	-60.0783	121.988	-19.2875	26.4584	126.856	-9.57985	59.3504	90.3933	-9.94538	47.9404	
1	0.00833333	61.9716	-30.4575	61.7657	37.4539	-35.3214	51.6188	12.0826	-41.8219	23.8501	-6.39878	-50.0138	11.3351	63.2363	-23.7145	-19.1254	51.4848	-24.3322	-46.836	46.9516	-25.7624	-74.1791	87.7499	-22.4029	-29.5662	81.3867	-24.5755	-63.8892	81.1431	-23.6848	-93.3681	112.132	-29.4685	-30.822	118.871	-32.2309	-52.8195	114.074	-30.1229	-83.8403	135.05	-40.6927	-13.2839	141.568	-40.7262	-40.5007	142.767	-37.9935	-64.3436	121.445	-20.6677	26.3667	126.646	-11.5492	58.684	89.0097	-9.86561	44.4048	
2	0.0166667	61.7199	-30.1059	66.8033	36.8502	-35.3885	48.8129	10.507	-41.6419	24.715	-3.65185	-49.9059	8.29729	63.4652	-23.3724	-19.9862	51.5437	-24.3758	-43.4361	48.1352	-25.5628	-71.5569	86.7557	-22.252	-34.8594	81.1	-24.138	-63.5922	81.1689	-23.4394	-95.055	115.021	-29.7129	-29.9269	114.581	-31.9197	-52.7231	114.609	-30.9652	-82.9799	134.935	-39.0457	-14.6942	141.249	-41.9541	-38.2957	143.07	-38.1049	-60.3903	122.059	-20.437	24.8839	129.056	-11.041	55.2112	91.1197	-9.32122	45.1685	
3	0.025	60.0295	-29.4958	63.9979	34.8197	-34.3728	51.7728	10.9532	-41.2393	22.9458	-5.9095	-50.0598	7.37907	61.5808	-22.9763	-17.7947	50.4731	-24.5645	-47.7436	48.4971	-25.6634	-73.4865	90.9143	-22.0637	-33.5715	84.5939	-24.3564	-65.4258	83.4508	-24.6848	-93.7897	113.073	-28.2473	-31.434	115.406	-30.4294	-56.7599	112.812	-30.552	-83.5828	134.679	-39.4218	-13.6159	139.51	-42.2574	-36.3855	144.37	-37.2815	-63.9031	119.207	-18.2535	24.9569	127.754	-12.4919	58.2071	86.6861	-10.1539	42.2363	
4	0.0333333	59.2126	-28.9111	63.225	36.0181	-34.75	50.8008	11.2242	-41.4384	24.6859	-4.18084	-50.9983	6.095	62.523	-22.9576	-21.5027	51.2188	-24.0852	-44.278	49.0031	-26.5756	-72.4778	87.0423	-21.7614	-29.0525	82.3486	-25.0535	-64.6772	80.3009	-24.4219	-91.3657	112.962	-29.724	-26.194	112.242	-30.7447	-56.8998	112.574	-29.1994	-84.5633	136.382	-40.873	-11.1555	139.74	-40.7397	-40.7814	143.681	-38.5738	-64.4499	120.51	-19.3064	28.2819	130.8	-10.9866	57.6232	92.7484	-10.6719	45.3955	
5	0.0416667	59.9727	-29.638	62.2325	38.0762	-35.475	49.8436	14.394	-42.952	28.2366	-1.28147	-51.5884	8.40515	60.2679	-23.5602	-19.2297	55.0928	-24.9212	-47.5498	42.9585	-25.1075	-73.7077	89.5364	-21.8198	-29.7036	85.391	-24.1831	-61.5089	79.8622	-24.4796	-89.5505	111.548	-28.7203	-29.4901	115.348	-30.0729	-53.7693	110.128	-30.0251	-80.5774	137.439	-39.6724	-14.7335	137.564	-40.7332	-37.3547	144.465	-36.1257	-65.2714	124.545	-20.5302	25.0372	127.961	-12.1388	55.3974	92.0967	-10.9038	41.7145	
6	0.05	62.4646	-30.3716	62.7213	34.9946	-33.9176	51.7455	10.2026	-41.7451	25.52	-3.37228	-52.3152	7.85642	61.5399	-23.1512	-19.7382	50.1471	-23.9464	-46.5093	48.7954	-25.2135	-73.5553	86.2772	-20.6849	-30.257	82.4895	-23.8264	-60.9932	79.5462	-23.799	-91.499	115.057	-28.0332	-29.9067	115.376	-29.8594	-54.1506	112.356	-29.1027	-80.8232	134.193	-39.4856	-12.0104	140.094	-40.5055	-40.2662	142.025	-35.8974	-66.2681	121.479	-18.2721	28.1366	126.139	-11.4802	57.9185	89.9959	-10.7675	42.9317	
7	0.0583333	62.6366	-29.936	67.075	35.6434	-34.1128	50.7018	13.3108	-43.0083	24.5755	0.62957	-53.1333	2.63748	60.0576	-21.579	-19.8063	53.7327	-24.2582	-49.261	47.1861	-23.9386	-75.8742	88.0575	-20.8617	-32.5583	82.4284	-23.219	-62.7997	81.673	-22.6	-96.1857	115.115	-28.2207	-30.9877	115.414	-29.1623	-55.8746	108.294	-27.4524	-80.5499	134.312	-38.2559	-11.1233	135.829	-39.0325	-36.9913	140.563	-33.0708	-63.3045	120.463	-16.722	23.5931	127.556	-9.76776	59.216	88.5697	-8.83598	46.0779	
8	0.0666667	64.8045	-29.9034	61.3078	36.2015	-34.3103	50.2109	18.0052	-44.1567	23.77	6.80878	-55.7084	0.603542	62.7861	-21.4005	-21.7577	54.2096	-22.0908	-47.7641	51.3418	-23.4456	-72.116	89.2854	-19.1686	-31.643	83.0562	-22.1698	-65.4666	79.9233	-22.314	-90.0528	112.195	-25.867	-26.9567	111.602	-28.1728	-53.0254	108.473	-25.2438	-83.7065	135.067	-36.4304	-13.8014	133.257	-37.569	-40.3735	139.445	-34.123	-62.0384	125.563	-16.0576	24.1171	130.937	-10.0264	55.3029	92.8744	-9.23635	46.1388	
9	0.075	64.5394	-27.8908	66.5204	36.4276	-34.5504	48.836	19.8588	-45.0308	21.2585	16.3965	-57.4185	-6.10707	66.211	-20.0174	-22.2933	55.2045	-22.2347	-44.5607	52.3261	-23.4641	-75.2712	85.9618	-17.2446	-33.5374	82.7631	-20.8917	-65.0657	78.7749	-20.3637	-90.5192	112.905	-24.7254	-27.484	109.534	-26.7212	-52.9357	105.194	-24.3264	-81.7359	136.854	-35.6783	-15.1295	133.209	-36.487	-40.3584	132.086	-30.9782	-62.9484	121.748	-17.1881	27.3991	131.414	-10.1467	54.1161	95.745	-6.62505	46.2891	
10	0.0833333	67.4678	-27.5887	62.0183	35.924	-32.9542	44.7428	22.6102	-47.3003	15.006	31.4785	-60.4824	-11.1309	66.2043	-19.4535	-19.2842	57.0595	-22.1137	-49.6806	59.0387	-23.1098	-74.0609	89.188	-18.308	-33.9966	86.5042	-20.489	-62.225	81.3347	-20.5485	-91.6763	113.244	-24.6642	-32.2509	109.739	-26.08	-54.5106	103.911	-24.0154	-81.9069	136.788	-35.8652	-16.5042	131.081	-35.9136	-41.0573	129.283	-29.512	-67.1066	123.453	-16.2364	28.1141	131.995	-7.77901	57.2811	95.7172	-8.4689	46.2988	
11	0.0916667	67.4883	-28.0533	65.3596	41.8969	-33.9966	44.3219	32.0037	-49.4151	7.9067	46.8774	-62.3614	-15.1443	65.6897	-19.0307	-22.8414	62.2298	-21.2162	-50.8869	60.0704	-22.784	-78.2768	87.4693	-17.4322	-31.4961	84.6012	-19.8043	-64.3223	78.1951	-18.51	-91.9809	112.084	-22.8226	-32.3838	109.623	-25.2925	-55.6953	100.54	-23.143	-84.7734	130.058	-33.1007	-19.4465	129.049	-33.753	-45.1889	127.386	-30.0209	-67.3865	125.075	-14.8329	21.456	131.43	-7.42056	54.6885	91.3493	-7.24674	41.9762	
12	0.1	65.2318	-27.6562	63.5693	42.0018	-35.612	41.0607	37.2156	-51.5552	9.62301	56.5896	-62.6218	-12.105	66.4173	-17.344	-25.9317	65.214	-20.9596	-51.8704	61.0336	-22.8092	-75.2552	86.4101	-16.8265	-37.0807	86.2681	-20.8764	-67.7388	81.776	-19.3956	-93.5983	110.174	-22.679	-33.8782	109.427	-24.69	-59.8739	98.1666	-22.2866	-84.3501	131.916	-32.1192	-20.3252	125.619	-33.9857	-43.5253	121.315	-29.8583	-66.6171	123.792	-11.9197	22.3802	131.006	-7.54947	53.4055	92.604	-4.36537	44.6186	
13	0.108333	68.646	-28.8944	58.6972	42.3157	-37.7029	37.8322	43.7001	-52.2051	5.75153	64.1809	-63.8254	-11.2034	71.4691	-18.9832	-23.9632	68.4034	-21.1749	-52.5184	65.223	-22.9348	-81.9026	93.0055	-17.588	-34.5725	87.8056	-21.3441	-64.2603	83.7106	-19.4127	-96.5086	112.804	-23.8286	-36.0686	104.427	-26.1746	-56.6556	101.184	-24.6363	-81.8807	134.167	-33.604	-18.2155	126.132	-35.4566	-45.7024	119.57	-31.4884	-63.4682	124.273	-13.0919	25.0925	131.056	-7.11062	51.8486	92.0375	-4.33862	44.153	
14	0.116667	66.3517	-29.4276	58.4573	39.7849	-38.9183	36.6136	46.3423	-53.5908	3.22719	75.3061	-62.287	-12.5892	68.9614	-18.4015	-27.9007	68.7228	-22.8233	-55.227	65.0737	-24.3648	-79.58	88.16	-19.2531	-35.7602	88.5312	-23.0132	-63.8327	83.1822	-21.1443	-95.2606	113.688	-24.8598	-34.6898	106.863	-26.292	-60.8077	99.0975	-24.8133	-86.4466	131.968	-35.0703	-17.8336	129.16	-36.1168	-42.6897	120.138	-31.0869	-67.2163	126.951	-14.4563	22.9076	129.129	-6.60726	53.9873	91.944	-7.00583	40.1676	
15	0.125	64.6426	-28.9351	57.9475	43.0474	-39.3752	34.6125	48.0165	-54.481	1.28885	75.7337	-63.1383	-11.0476	68.2261	-19.4365	-27.1838	65.621	-23.8979	-55.2289	64.0501	-24.7211	-79.8276	88.8371	-20.632	-38.2934	83.2688	-24.0096	-67.1293	81.2385	-22.0646	-93.2122	108.589	-25.1061	-34.5097	110.751	-27.2949	-57.002	102.167	-25.6024	-85.4008	131.835	-35.3168	-18.8081	127.509	-37.7135	-42.8974	120.091	-32.4248	-65.5366	128.132	-13.587	23.4821	132.397	-6.58873	51.0356	92.7939	-7.11949	43.3605	
16	0.133333	67.9675	-30.7772	57.8336	42.9082	-39.5228	31.6706	54.617	-53.5275	-1.74655	80.8399	-62.5691	-12.0071	68.451	-20.1927	-28.4189	64.5878	-23.9302	-53.8401	68.4048	-25.1221	-82.1275	88.7737	-19.4892	-35.1419	84.7034	-24.5028	-64.4967	87.0129	-23.467	-93.4688	110.437	-25.2117	-30.1942	107.414	-27.5993	-59.4792	100.465	-25.0989	-86.3042	132.966	-35.8851	-16.8111	124.306	-38.5741	-44.9806	118.925	-32.9127	-66.852	125.815	-13.3423	24.3943	132.177	-6.27733	54.6632	93.5752	-7.53462	43.9554	
17	0.141667	64.8268	-29.0098	56.2204	47.2972	-38.605	28.9356	51.9474	-53.6006	-2.66628	79.3726	-61.8202	-14.1481	71.8336	-19.8784	-29.3688	69.2813	-23.314	-54.8288	69.7074	-25.2794	-80.2294	91.9267	-20.2856	-38.8805	87.9602	-23.7472	-68.5495	84.2015	-21.3685	-95.3319	109.438	-24.1345	-33.4609	110.182	-26.8911	-61.9416	101.014	-25.3445	-84.6035	129.597	-34.9377	-19.7581	125.652	-37.6854	-45.504	124.971	-31.6394	-65.3269	126.966	-13.048	23.677	131.691	-6.01051	56.4901	90.3666	-6.75069	43.7737	
